<svg width="74" height="74" viewBox="0 0 74 74" fill="none" xmlns="http://www.w3.org/2000/svg">
<path d="M74 37C74 57.4345 57.4345 74 37 74C16.5655 74 0 57.4345 0 37C0 16.5655 16.5655 0 37 0C57.4345 0 74 16.5655 74 37Z" fill="white"/>
<path d="M33.2765 43.4467C33.2608 43.3697 33.0358 43.1431 33.0143 43.1017C32.0258 41.1292 30.98 39.3149 29.9728 37.3424C29.6863 36.7823 29.351 36.0525 29.0788 35.4397C28.7808 34.7684 28.7063 34.6231 28.6204 34.0045C28.586 33.7537 28.5903 33.4757 28.6934 33.1508L32.182 37.7144C32.3897 37.8555 32.6146 37.6787 32.7923 37.5661C33.3224 37.2284 33.8467 36.7794 34.3696 36.4274C34.4914 36.3461 34.9012 35.8872 35.0659 36.0012L35.8625 38.0807C35.9871 38.2346 36.0616 38.3286 36.2837 38.283C36.2837 38.1861 36.2693 38.075 36.3037 37.9823C36.6719 36.9861 37.5645 35.7461 38.4857 35.1475C39.096 34.7513 39.7464 34.556 40.5115 34.3993C40.6633 34.2995 40.6203 33.5242 40.5831 33.3631C40.5702 33.309 40.596 33.4173 40.5831 33.3631C40.5143 33.0781 40.5487 32.7303 40.2794 32.4538C40.0831 32.3427 37.5996 32.8453 36.9298 31.6529C36.7076 31.2573 36.5667 31.1526 36.5716 30.6552C36.5731 30.5113 37.3195 30.3744 37.6633 30.2832C38.9699 29.9354 40.6977 29.2357 41.9828 29.0219C42.2507 28.9777 42.6189 28.9934 42.8037 29.2143C43.0086 29.458 43.3868 30.4628 43.5329 30.8205C43.957 31.8595 44.3897 33.0567 44.7306 34.0615C44.8868 34.5233 45.0773 34.9209 44.8538 35.4069C43.6418 37.0901 42.2049 39.2707 41.1519 41.0793C41.1074 41.1563 40.8825 41.4328 40.8481 41.5069C40.2837 42.7198 40.6504 56.5246 40.6504 56.5246H45.596V63.8646H40.6533V69.0667H33.2751V63.8646H28.404L28.404 56.5246H33.2751V43.4481L33.2765 43.4467Z" fill="#6C4574"/>
<path d="M11.6737 35.3556C11.6737 21.4436 22.9456 10.1657 36.8501 10.1657C50.7547 10.1657 62.0265 21.4436 62.0265 35.3556C62.0265 43.898 57.7766 51.4474 51.2768 56.0023C51.217 56.2881 51.2519 60.4082 51.2768 62.4325C61.0538 57.317 67.7212 47.1111 67.7212 35.3556C67.7212 18.4713 53.9669 4.78384 37 4.78384C20.0331 4.78384 6.27879 18.4713 6.27879 35.3556C6.27879 47.1111 12.9462 57.317 22.7232 62.4325V56.2092C16.0547 51.678 11.6737 44.0287 11.6737 35.3556Z" fill="#66AC21"/>
<path fill-rule="evenodd" clip-rule="evenodd" d="M42.0081 52.406C50.1055 50.2067 56.0606 42.8039 56.0606 34.0101C56.0606 23.4832 47.5269 14.9495 37 14.9495C26.4731 14.9495 17.9394 23.4832 17.9394 34.0101C17.9394 42.8039 23.8945 50.2067 31.9919 52.406C31.9919 52.406 31.9919 47.1657 31.9919 46.5677C31.9919 45.9697 30.6465 42.6061 30.6465 42.6061H23.9192C22.3114 39.7076 21.7713 37.9611 21.303 34.6828L26.7596 30.6465L24.7414 24.2182C26.9088 21.6882 28.4048 20.6443 31.3939 19.2101L37 23.1717L42.5313 19.2101C45.5314 20.8004 47.0978 21.8577 49.5576 24.2182L47.3152 30.6465L52.6222 34.6828C52.1737 38.0633 51.658 39.8021 50.2303 42.6061H43.5778C43.5778 42.6061 41.9333 46.1192 41.9333 46.5677C41.9333 47.0162 42.0081 52.406 42.0081 52.406Z" fill="#C56287"/>
<path d="M28.8525 32.2162C29.0116 32.7795 31.5434 35.7293 31.6929 35.804C31.8424 35.8788 33.1879 34.8323 33.1879 34.7058C33.1879 34.5794 30.7212 30.7672 30.497 30.6695C30.2727 30.5717 28.6934 31.6529 28.8525 32.2162Z" fill="#6C4574"/>
<path d="M33.4121 28.4093C33.1069 28.0665 30.9466 29.4123 31.1697 29.9737C31.3928 30.5352 33.7859 34.2189 33.9354 34.3091C34.0848 34.3993 35.6545 33.1237 35.6545 32.9689C35.6545 32.8141 33.7173 28.7522 33.4121 28.4093Z" fill="#6C4574"/>
<path d="M36.0283 31.7677C36.0283 31.7677 34.4564 28.1618 34.3091 27.7313C34.1618 27.3008 36.7545 26.1782 37.0747 26.6101C37.3949 27.042 38.1399 29.4505 38.1399 29.4505C37.2124 29.5639 36.7121 29.6638 35.9722 30.1232L36.0283 31.7677Z" fill="#6C4574"/>
<path d="M37.9717 26.5127C38.0775 26.9325 39.0182 29.2784 39.0182 29.2784C39.859 29.208 40.402 29.0056 41.4848 28.6283C41.4848 28.6283 40.561 26.0405 40.2889 25.7131C40.0168 25.3858 37.8659 26.093 37.9717 26.5127Z" fill="#6C4574"/>
</svg>
