<svg width="91" height="92" viewBox="0 0 91 92" fill="none" xmlns="http://www.w3.org/2000/svg">
<path d="M23.3403 12.8793L20.06 7.84833L21.4024 6.99018C21.6834 6.81056 21.9461 6.73039 22.1904 6.74968C22.4367 6.76774 22.67 6.86835 22.8903 7.05151C23.1106 7.23466 23.3239 7.48441 23.5301 7.80075C23.7289 8.10565 23.8724 8.39056 23.9606 8.65548C24.0476 8.91848 24.0545 9.16113 23.9813 9.38342C23.91 9.60449 23.7339 9.80483 23.4529 9.98446L23.0401 10.2484L24.3391 12.2407L23.3403 12.8793ZM22.4511 9.34508L22.5088 9.30817C22.6974 9.1876 22.7787 9.06137 22.7527 8.9295C22.7268 8.79762 22.6473 8.62973 22.5143 8.42582C22.3901 8.23526 22.2732 8.10206 22.1638 8.02622C22.055 7.94724 21.9237 7.95697 21.7697 8.05539L21.6571 8.12737L22.4511 9.34508Z" fill="#4C1C7E"/>
<path d="M25.9131 11.2447L23.5852 5.68759L25.3957 4.73253L28.7456 9.75046L27.7358 10.2832L27.2011 9.47036L26.5582 9.80951L26.9503 10.6975L25.9131 11.2447ZM26.18 8.9257L26.6652 8.66974L24.9857 6.10533L24.9372 6.13092L26.18 8.9257Z" fill="#4C1C7E"/>
<path d="M30.425 9.09115C29.9171 9.30556 29.4966 9.33517 29.1633 9.17998C28.8321 9.0239 28.5488 8.67253 28.3134 8.12585L28.0816 7.58752L29.1816 7.12311L29.4781 7.81167C29.5329 7.93895 29.595 8.0311 29.6643 8.08811C29.7349 8.14215 29.8187 8.14871 29.9156 8.10779C30.0168 8.06508 30.0737 8.00651 30.0865 7.93207C30.1014 7.85675 30.0801 7.75231 30.0226 7.61877C29.9498 7.44976 29.8723 7.31604 29.79 7.2176C29.7069 7.11708 29.6012 7.03349 29.4729 6.96683C29.3458 6.8972 29.1788 6.82467 28.972 6.74924L28.2704 6.49062C27.7474 6.29963 27.3893 5.97984 27.1961 5.53123C26.9939 5.06176 26.9494 4.65766 27.0626 4.31892C27.1778 3.97929 27.444 3.7214 27.8613 3.54524C28.3712 3.32994 28.7906 3.31195 29.1193 3.49125C29.4501 3.66967 29.7337 4.03326 29.97 4.58202L28.8384 5.05977L28.6754 4.68107C28.643 4.60595 28.5957 4.55687 28.5335 4.53382C28.4734 4.50988 28.4065 4.51349 28.3327 4.54462C28.2442 4.58199 28.1897 4.63461 28.1691 4.70248C28.1497 4.76737 28.1566 4.83842 28.1899 4.91562C28.2231 4.99283 28.2801 5.06739 28.3609 5.13932C28.4417 5.21125 28.5694 5.27939 28.7441 5.34374L29.6485 5.68315C29.8292 5.7499 30.0024 5.8284 30.1683 5.91866C30.3333 6.00682 30.4871 6.12684 30.6297 6.2787C30.7714 6.42848 30.8975 6.63169 31.008 6.88833C31.2308 7.40579 31.3086 7.85255 31.2414 8.22861C31.1755 8.60168 30.9033 8.8892 30.425 9.09115Z" fill="#4C1C7E"/>
<path d="M33.4602 7.96243C32.936 8.13417 32.5144 8.12897 32.1954 7.9468C31.8785 7.76393 31.6258 7.39039 31.4372 6.82619L31.2515 6.2706L32.3868 5.8986L32.6243 6.60924C32.6682 6.7406 32.7223 6.83755 32.7866 6.9001C32.8524 6.95977 32.9353 6.97322 33.0354 6.94044C33.1398 6.90623 33.2014 6.85257 33.2204 6.77944C33.2416 6.70561 33.2292 6.59978 33.1831 6.46196C33.1248 6.28753 33.0588 6.14787 32.9852 6.04299C32.9108 5.93595 32.8125 5.84393 32.6902 5.76691C32.5694 5.68703 32.4091 5.60097 32.2094 5.50873L31.532 5.1931C31.0269 4.95961 30.697 4.61137 30.5422 4.14838C30.3803 3.66385 30.37 3.25748 30.5112 2.92926C30.6547 2.60032 30.9417 2.36531 31.3723 2.2242C31.8986 2.05175 32.318 2.06843 32.6305 2.27424C32.9452 2.47935 33.1971 2.86508 33.3864 3.43144L32.2185 3.81412L32.0879 3.42327C32.062 3.34575 32.019 3.29294 31.959 3.26483C31.9011 3.23602 31.8341 3.23408 31.7579 3.25902C31.6666 3.28895 31.6078 3.33688 31.5816 3.40282C31.5568 3.46589 31.5578 3.53726 31.5844 3.61694C31.611 3.69662 31.6616 3.77563 31.736 3.85397C31.8104 3.93232 31.932 4.01077 32.1006 4.08931L32.9733 4.5022C33.1477 4.58363 33.3138 4.67616 33.4715 4.77979C33.6285 4.88126 33.7716 5.01356 33.9009 5.17666C34.0295 5.33761 34.1381 5.55052 34.2266 5.8154C34.4051 6.34945 34.445 6.80108 34.3464 7.17028C34.2493 7.53661 33.9538 7.80066 33.4602 7.96243Z" fill="#4C1C7E"/>
<path d="M35.0103 7.40652L34.186 1.44596L36.1823 0.978183L38.1334 6.67469L37.0199 6.93561L36.7116 6.01488L36.0027 6.18099L36.1538 7.13855L35.0103 7.40652ZM35.8639 5.23101L36.3989 5.10564L35.4332 2.20263L35.3797 2.21517L35.8639 5.23101Z" fill="#4C1C7E"/>
<path d="M39.9614 6.3698L39.9288 0.353703L41.9696 0.147555L43.1542 6.04728L42.0159 6.16227L41.8314 5.2096L41.1067 5.2828L41.1305 6.2517L39.9614 6.3698ZM41.0941 4.32302L41.6411 4.26777L41.0657 1.26489L41.011 1.27041L41.0941 4.32302Z" fill="#4C1C7E"/>
<path d="M45.1717 5.98596L45.3411 0L46.9796 0.0454785C47.4192 0.0576823 47.7356 0.173117 47.9288 0.391784C48.1244 0.608246 48.2152 0.960224 48.2014 1.44772L48.194 1.7096C48.1861 1.99076 48.1281 2.21721 48.0201 2.38894C47.9144 2.56073 47.7566 2.67094 47.5467 2.71958C47.8172 2.79516 47.9948 2.96007 48.0792 3.21429C48.1661 3.46632 48.2044 3.77258 48.1942 4.1331C48.1832 4.52083 48.137 4.85879 48.0555 5.14699C47.974 5.43518 47.8348 5.6571 47.6379 5.81275C47.4409 5.96839 47.165 6.04129 46.8101 6.03144L45.1717 5.98596ZM46.4589 2.28774L46.7062 2.2946C46.8184 2.29772 46.8918 2.25664 46.9263 2.17137C46.9607 2.08609 46.9797 1.98337 46.9831 1.8632L47.0001 1.2612C47.0056 1.06847 46.9225 0.969723 46.7507 0.964956L46.4965 0.957901L46.4589 2.28774ZM46.5033 4.96775C46.817 4.97646 46.9781 4.83343 46.9864 4.53867L47.0076 3.79042C47.0124 3.62037 46.9899 3.48586 46.94 3.3869C46.8924 3.28573 46.7976 3.23318 46.6557 3.22924L46.4324 3.22304L46.3833 4.95761C46.4336 4.96354 46.4736 4.96692 46.5033 4.96775Z" fill="#4C1C7E"/>
<path d="M49.9625 6.31979C49.4823 6.26506 49.1314 6.08007 48.9098 5.76483C48.6907 5.4476 48.6127 5.01745 48.6759 4.47437L49.0044 1.64859C49.0636 1.13931 49.2337 0.767121 49.5147 0.532007C49.798 0.297152 50.182 0.207353 50.6667 0.262608C51.1514 0.317864 51.5037 0.491584 51.7233 0.78377C51.9453 1.07621 52.0267 1.47707 51.9675 1.98635L51.6389 4.81213C51.5758 5.3552 51.4 5.75643 51.1116 6.01582C50.8257 6.2732 50.4427 6.37453 49.9625 6.31979ZM50.1001 5.2258C50.2821 5.24655 50.3935 5.08229 50.4341 4.73301L50.7716 1.82948C50.8057 1.53654 50.734 1.37995 50.5564 1.35971C50.3562 1.33689 50.2386 1.47532 50.2038 1.77503L49.8666 4.67518C49.8451 4.85996 49.8524 4.9955 49.8885 5.08181C49.9249 5.16587 49.9954 5.21387 50.1001 5.2258Z" fill="#4C1C7E"/>
<path d="M51.9305 6.51076L53.1019 0.635855L54.2885 0.867832L53.3168 5.74134L54.5372 5.9799L54.3375 6.98131L51.9305 6.51076Z" fill="#4C1C7E"/>
<path d="M54.5102 7.02361L56.7265 1.42195L58.6996 1.97761L57.5972 7.89294L56.4966 7.583L56.6809 6.63029L55.9802 6.43297L55.6405 7.34193L54.5102 7.02361ZM56.327 5.53662L56.8558 5.68554L57.4426 2.68484L57.3897 2.66995L56.327 5.53662Z" fill="#4C1C7E"/>
<path d="M60.1083 6.94476L60.4131 6.21533L62.0515 6.88641L61.7468 7.61584L60.1083 6.94476Z" fill="#4C1C7E"/>
<path d="M63.0012 10.1211L65.9224 4.87768L67.3215 5.6419C67.6143 5.80186 67.8101 5.99296 67.9086 6.21519C68.0092 6.43851 68.0302 6.68961 67.9717 6.96849C67.9131 7.24736 67.792 7.55165 67.6083 7.88135C67.4312 8.19913 67.2458 8.45922 67.0519 8.6616C66.8592 8.862 66.6466 8.98292 66.4142 9.02437C66.1839 9.06691 65.9222 9.0082 65.6294 8.84824L65.1991 8.61322L64.0423 10.6897L63.0012 10.1211ZM65.7236 7.67179L65.7838 7.70466C65.9804 7.81203 66.1311 7.82315 66.2361 7.73802C66.3411 7.65289 66.4528 7.50406 66.5712 7.29155C66.6819 7.09293 66.745 6.92795 66.7606 6.79659C66.7794 6.66435 66.7085 6.5544 66.548 6.46674L66.4307 6.40265L65.7236 7.67179Z" fill="#4C1C7E"/>
<path d="M65.6736 11.5906L69.5127 6.92748L71.2199 8.05363L68.3447 13.3524L67.3924 12.7242L67.8619 11.8729L67.2556 11.473L66.6517 12.2357L65.6736 11.5906ZM67.8624 10.7244L68.32 11.0263L69.8048 8.34666L69.759 8.31648L67.8624 10.7244Z" fill="#4C1C7E"/>
<path d="M69.728 14.5028C69.2963 14.1621 69.0703 13.8096 69.0499 13.4455C69.0314 13.0828 69.2091 12.6691 69.5832 12.2043L69.9516 11.7467L70.8867 12.4847L70.4155 13.0701C70.3284 13.1783 70.276 13.2761 70.2583 13.3637C70.2438 13.4508 70.2777 13.5269 70.3601 13.592C70.4461 13.6598 70.5252 13.6817 70.5975 13.6574C70.6715 13.6346 70.7542 13.5665 70.8455 13.4529C70.9612 13.3093 71.0432 13.1782 71.0917 13.0598C71.1415 12.9396 71.1656 12.8078 71.1639 12.6643C71.1655 12.5205 71.1507 12.3406 71.1195 12.1246L71.0162 11.3904C70.9376 10.8439 71.0518 10.38 71.3587 9.99863C71.68 9.59952 72.018 9.36884 72.3728 9.30657C72.7294 9.24571 73.085 9.35524 73.4397 9.63518C73.8732 9.97732 74.0883 10.3342 74.0851 10.7058C74.0836 11.0788 73.8951 11.4986 73.5196 11.9651L72.5576 11.2059L72.8168 10.884C72.8682 10.8201 72.8894 10.7556 72.8803 10.6904C72.873 10.6267 72.838 10.5701 72.7753 10.5206C72.7001 10.4612 72.6274 10.4386 72.5573 10.4529C72.4905 10.4669 72.4306 10.5067 72.3778 10.5723C72.325 10.6379 72.2858 10.723 72.2602 10.8276C72.2346 10.9321 72.2347 11.0758 72.2604 11.2585L72.3883 12.2078C72.4147 12.397 72.4272 12.5852 72.4258 12.7726C72.4258 12.9583 72.3921 13.1493 72.3249 13.3456C72.259 13.5402 72.1383 13.7466 71.9627 13.9648C71.6086 14.4047 71.2485 14.6847 70.8823 14.8047C70.5194 14.9244 70.1347 14.8237 69.728 14.5028Z" fill="#4C1C7E"/>
<path d="M72.1764 16.608C71.7736 16.2341 71.5769 15.8648 71.5861 15.5002C71.597 15.1372 71.8077 14.7389 72.2182 14.3054L72.6225 13.8785L73.4948 14.6884L72.9777 15.2344C72.8821 15.3354 72.822 15.4288 72.7972 15.5146C72.7757 15.6003 72.8034 15.6789 72.8802 15.7503C72.9604 15.8247 73.0375 15.8528 73.1115 15.8344C73.1871 15.8175 73.2751 15.7561 73.3753 15.6502C73.5023 15.5162 73.5947 15.3921 73.6525 15.2779C73.712 15.1621 73.7467 15.0326 73.7566 14.8895C73.7698 14.7462 73.7696 14.5657 73.756 14.3479L73.7125 13.6079C73.6784 13.0569 73.8298 12.6036 74.1666 12.2478C74.5192 11.8755 74.8748 11.6724 75.2335 11.6385C75.5939 11.6061 75.9395 11.7436 76.2704 12.0508C76.6748 12.4262 76.8603 12.799 76.827 13.1692C76.7953 13.5409 76.5734 13.9444 76.1613 14.3795L75.2639 13.5464L75.5483 13.2461C75.6047 13.1865 75.631 13.1239 75.6273 13.0582C75.6252 12.9941 75.5949 12.9349 75.5364 12.8806C75.4662 12.8154 75.3956 12.7871 75.3246 12.7958C75.2568 12.8044 75.1939 12.8393 75.136 12.9005C75.078 12.9618 75.032 13.0435 74.9981 13.1456C74.9641 13.2478 74.9526 13.391 74.9634 13.5752L75.0139 14.5317C75.025 14.7223 75.0222 14.9109 75.0056 15.0976C74.9905 15.2826 74.9415 15.4703 74.8586 15.6607C74.7772 15.8495 74.6402 16.0456 74.4474 16.2491C74.0588 16.6595 73.6772 16.91 73.3025 17.0006C72.9311 17.091 72.5557 16.9602 72.1764 16.608Z" fill="#4C1C7E"/>
<path d="M73.4103 17.6907L78.2931 14.1104L79.6668 15.619L75.5594 20.0509L74.7932 19.2094L75.4605 18.4992L74.9727 17.9635L74.1973 18.5549L73.4103 17.6907ZM75.7473 17.3864L76.1155 17.7907L78.2224 15.557L78.1856 15.5166L75.7473 17.3864Z" fill="#4C1C7E"/>
<path d="M76.7137 21.4873L82.0093 18.538L83.1823 20.2044L78.5488 24.0945L77.8945 23.165L78.646 22.5427L78.2295 21.9509L77.3857 22.442L76.7137 21.4873ZM79.0708 21.474L79.3851 21.9207L81.757 19.9646L81.7255 19.9199L79.0708 21.474Z" fill="#4C1C7E"/>
<path d="M79.5889 25.8074L84.9386 23.0146L85.7031 24.4503C85.9082 24.8355 85.962 25.1651 85.8644 25.4392C85.77 25.7141 85.5049 25.9653 85.0693 26.1927L84.8352 26.3149C84.5839 26.4461 84.3562 26.5073 84.1521 26.4984C83.9491 26.4916 83.7747 26.4096 83.6288 26.2524C83.6951 26.5229 83.6372 26.757 83.455 26.9547C83.2759 27.1533 83.0253 27.3367 82.7031 27.5049C82.3566 27.6858 82.0365 27.8119 81.7429 27.8831C81.4494 27.9543 81.1858 27.9432 80.9522 27.8497C80.7185 27.7563 80.5189 27.5541 80.3533 27.2431L79.5889 25.8074ZM83.4747 25.102L83.59 25.3187C83.6424 25.417 83.7145 25.4602 83.8065 25.448C83.8985 25.4359 83.9981 25.4018 84.1055 25.3458L84.6436 25.0649C84.8158 24.975 84.8619 24.8548 84.7817 24.7043L84.6631 24.4816L83.4747 25.102ZM81.1386 26.4562C81.2849 26.7311 81.4898 26.7998 81.7533 26.6622L82.422 26.3131C82.574 26.2338 82.6812 26.1483 82.7438 26.0567C82.8095 25.966 82.8092 25.8584 82.7429 25.734L82.6388 25.5384L81.0886 26.3477C81.108 26.3939 81.1247 26.4301 81.1386 26.4562Z" fill="#4C1C7E"/>
<path d="M81.6512 30.1026C81.4626 29.6619 81.4521 29.2684 81.6198 28.9221C81.7905 28.577 82.13 28.2977 82.6383 28.0844L85.2831 26.9742C85.7598 26.7741 86.1707 26.7371 86.5158 26.8633C86.8618 26.9915 87.13 27.278 87.3205 27.7229C87.5109 28.1677 87.5319 28.5568 87.3835 28.8901C87.236 29.2255 86.9239 29.4932 86.4473 29.6933L83.8024 30.8035C83.2942 31.0168 82.8549 31.0632 82.4848 30.9426C82.1178 30.8233 81.8399 30.5432 81.6512 30.1026ZM82.6803 29.6817C82.7518 29.8488 82.951 29.8637 83.2779 29.7265L85.9955 28.5858C86.2697 28.4707 86.3719 28.3317 86.3022 28.1688C86.2235 27.985 86.0439 27.952 85.7634 28.0697L83.049 29.2091C82.876 29.2817 82.7605 29.3549 82.7025 29.4285C82.6465 29.5012 82.6391 29.5857 82.6803 29.6817Z" fill="#4C1C7E"/>
<path d="M82.455 31.8919L88.1855 29.9781L88.572 31.1129L83.8183 32.7005L84.2159 33.8676L83.2391 34.1938L82.455 31.8919Z" fill="#4C1C7E"/>
<path d="M83.2884 34.3631L89.2939 33.4507L89.7985 35.4196L84.0778 37.4433L83.7964 36.3451L84.7211 36.025L84.5419 35.3258L83.5774 35.491L83.2884 34.3631ZM85.499 35.1731L85.6342 35.7008L88.55 34.6978L88.5365 34.645L85.499 35.1731Z" fill="#4C1C7E"/>
<path d="M86.171 39.1059L86.9604 38.9957L87.208 40.7341L86.4186 40.8444L86.171 39.1059Z" fill="#4C1C7E"/>
<path d="M84.8837 43.1855L90.9277 42.9739L90.9841 44.555C90.9959 44.886 90.9309 45.1504 90.789 45.3483C90.6471 45.5485 90.4403 45.6953 90.1686 45.7888C89.8969 45.8823 89.571 45.9357 89.191 45.949C88.8247 45.9618 88.504 45.9379 88.2291 45.8771C87.9564 45.8163 87.7425 45.6978 87.5872 45.5217C87.432 45.3478 87.3485 45.0954 87.3367 44.7645L87.3193 44.2782L84.9258 44.362L84.8837 43.1855ZM88.4044 44.2402L88.4069 44.3082C88.4148 44.5304 88.4826 44.6642 88.6103 44.7096C88.738 44.7551 88.9243 44.7735 89.1693 44.765C89.3982 44.7569 89.5736 44.7258 89.6955 44.6716C89.8197 44.6196 89.8786 44.5029 89.8721 44.3216L89.8673 44.189L88.4044 44.2402Z" fill="#4C1C7E"/>
<path d="M84.9837 46.211L91 47.0508L90.9103 49.0801L84.8433 49.3859L84.8933 48.254L85.872 48.2112L85.9039 47.4906L84.9323 47.3736L84.9837 46.211ZM86.8648 47.6174L86.8407 48.1613L89.9247 48.0327L89.9271 47.9783L86.8648 47.6174Z" fill="#4C1C7E"/>
<path d="M84.5747 51.155C84.6426 50.6124 84.828 50.2375 85.1309 50.0301C85.4336 49.825 85.8828 49.7589 86.4784 49.832L87.0649 49.9039L86.9179 51.079L86.1677 50.987C86.029 50.97 85.9173 50.9768 85.8327 51.0076C85.75 51.0409 85.7022 51.1093 85.6893 51.2128C85.6758 51.3209 85.6983 51.3991 85.7569 51.4474C85.8152 51.498 85.9171 51.5322 86.0626 51.5501C86.2467 51.5727 86.4024 51.5735 86.5297 51.5525C86.6592 51.5318 86.7854 51.4833 86.908 51.4069C87.0327 51.3331 87.1799 51.2266 87.3496 51.0874L87.9279 50.6167C88.3574 50.2648 88.8166 50.1188 89.3054 50.1788C89.8169 50.2416 90.1921 50.4065 90.4311 50.6735C90.6698 50.9428 90.7612 51.3002 90.7055 51.746C90.6373 52.2907 90.4424 52.6588 90.1206 52.8502C89.7986 53.0438 89.3387 53.1039 88.7408 53.0306L88.892 51.8218L89.3047 51.8724C89.3865 51.8824 89.4531 51.8666 89.5045 51.8249C89.5556 51.7855 89.5861 51.7263 89.5959 51.6476C89.6078 51.553 89.5892 51.4799 89.5403 51.4282C89.4934 51.379 89.4278 51.3492 89.3437 51.3389C89.2596 51.3286 89.1658 51.3399 89.0624 51.373C88.9591 51.406 88.8354 51.4811 88.6915 51.5983L87.9407 52.2022C87.7917 52.3233 87.6361 52.4322 87.474 52.5289C87.3141 52.6259 87.132 52.6972 86.9278 52.743C86.7258 52.7891 86.485 52.795 86.2054 52.7607C85.6416 52.6915 85.2124 52.5337 84.9177 52.2873C84.6251 52.0434 84.5107 51.666 84.5747 51.155Z" fill="#4C1C7E"/>
<path d="M84.0437 54.3226C84.1544 53.7871 84.369 53.4277 84.6874 53.2444C85.0054 53.0634 85.4584 53.0325 86.0464 53.1516L86.6254 53.269L86.3857 54.429L85.6451 54.2789C85.5082 54.2512 85.3964 54.2494 85.3095 54.2734C85.2245 54.3002 85.1714 54.3647 85.1503 54.4669C85.1283 54.5736 85.1445 54.6533 85.1991 54.706C85.2532 54.761 85.3521 54.803 85.4957 54.8321C85.6775 54.8689 85.8327 54.8819 85.9612 54.8709C86.092 54.8603 86.2216 54.8217 86.3499 54.7551C86.48 54.6912 86.6352 54.5964 86.8155 54.4709L87.4293 54.0465C87.8854 53.7291 88.3547 53.6193 88.8372 53.717C89.3421 53.8194 89.7032 54.0129 89.9202 54.2977C90.1368 54.5846 90.1997 54.9481 90.1088 55.3882C89.9976 55.9259 89.7741 56.2777 89.4382 56.4435C89.1019 56.6115 88.6386 56.6358 88.0483 56.5162L88.2949 55.3228L88.7023 55.4053C88.7831 55.4217 88.8507 55.4111 88.9053 55.3735C88.9593 55.3382 88.9944 55.2816 89.0105 55.2038C89.0298 55.1105 89.0171 55.0362 88.9724 54.9808C88.9295 54.9281 88.8665 54.8934 88.7835 54.8765C88.7004 54.8597 88.6061 54.8638 88.5004 54.8887C88.3947 54.9135 88.2655 54.9788 88.1127 55.0845L87.3164 55.6281C87.1582 55.7373 86.9945 55.8338 86.8252 55.9176C86.6581 56.0018 86.471 56.0588 86.2637 56.0886C86.0587 56.1189 85.8182 56.106 85.5422 56.0501C84.9856 55.9373 84.5702 55.7467 84.296 55.4781C84.0236 55.2122 83.9395 54.8271 84.0437 54.3226Z" fill="#4C1C7E"/>
<path d="M83.759 55.9306L89.4012 58.1626L88.8268 60.1126L82.8604 58.9814L83.1807 57.8937L84.1416 58.0826L84.3456 57.3901L83.4299 57.0477L83.759 55.9306ZM85.2485 57.7395L85.0946 58.2621L88.121 58.8632L88.1364 58.811L85.2485 57.7395Z" fill="#4C1C7E"/>
<path d="M82.2334 60.709L87.5512 63.6188L86.7363 65.4829L80.9583 63.6253L81.4129 62.5855L82.3426 62.8914L82.632 62.2294L81.7665 61.7768L82.2334 60.709ZM83.484 62.6873L83.2656 63.1869L86.193 64.1562L86.2148 64.1063L83.484 62.6873Z" fill="#4C1C7E"/>
<path d="M80.0361 65.4032L85.2466 68.443L84.4146 69.8413C84.1914 70.2166 83.9364 70.4351 83.6497 70.4969C83.3638 70.5618 83.0087 70.4704 82.5843 70.2229L82.3564 70.0899C82.1116 69.9471 81.9394 69.7874 81.8398 69.6108C81.739 69.4362 81.7178 69.2461 81.7763 69.0406C81.5787 69.2386 81.3471 69.3128 81.0815 69.2632C80.8167 69.2167 80.5274 69.1019 80.2136 68.9188C79.8761 68.7219 79.5996 68.5185 79.3842 68.3085C79.1688 68.0986 79.0398 67.8707 78.9974 67.6248C78.9549 67.3789 79.0238 67.1045 79.2041 66.8015L80.0361 65.4032ZM82.6838 68.3063L82.5582 68.5174C82.5012 68.6132 82.5021 68.6966 82.5608 68.7677C82.6195 68.8388 82.7012 68.9049 82.8058 68.9659L83.3298 69.2716C83.4976 69.3695 83.625 69.3452 83.7123 69.1986L83.8413 68.9817L82.6838 68.3063ZM80.2928 67.0497C80.1335 67.3174 80.1821 67.5261 80.4387 67.6758L81.09 68.0558C81.238 68.1421 81.3678 68.1876 81.4795 68.1922C81.5919 68.1998 81.6842 68.1431 81.7562 68.0219L81.8696 67.8314L80.3597 66.9505C80.3302 66.9912 80.3079 67.0243 80.2928 67.0497Z" fill="#4C1C7E"/>
<path d="M77.4308 69.3989C77.7098 69.008 78.0421 68.792 78.4277 68.7507C78.814 68.7127 79.2325 68.8514 79.6834 69.1668L82.0294 70.8083C82.4522 71.1042 82.7004 71.4305 82.7738 71.7875C82.846 72.1463 82.7413 72.5229 82.4597 72.9175C82.1781 73.3121 81.8552 73.5347 81.4909 73.5853C81.1252 73.6378 80.731 73.5161 80.3082 73.2203L77.9622 71.5788C77.5113 71.2633 77.2401 70.9181 77.1487 70.543C77.0579 70.1712 77.1519 69.7898 77.4308 69.3989ZM78.3341 70.0434C78.2284 70.1916 78.3205 70.3672 78.6105 70.5701L81.0211 72.2567C81.2643 72.4269 81.4374 72.4397 81.5405 72.2952C81.6569 72.1322 81.5906 71.9637 81.3418 71.7896L78.934 70.1049C78.7806 69.9975 78.657 69.9388 78.5632 69.9287C78.4713 69.92 78.3949 69.9582 78.3341 70.0434Z" fill="#4C1C7E"/>
<path d="M76.3178 71.0175L80.974 74.839L80.2021 75.7611L76.3396 72.591L75.5458 73.5393L74.7522 72.8879L76.3178 71.0175Z" fill="#4C1C7E"/>
<path d="M74.6325 73.0184L78.567 77.6028L77.1388 79.0609L72.3981 75.2996L73.1947 74.4863L73.955 75.098L74.4622 74.5802L73.8143 73.8537L74.6325 73.0184ZM75.0955 75.3069L74.7127 75.6977L77.1046 77.6297L77.1428 77.5906L75.0955 75.3069Z" fill="#4C1C7E"/>
<path d="M72.0619 77.9368L72.5694 78.5456L71.202 79.6633L70.6945 79.0545L72.0619 77.9368Z" fill="#4C1C7E"/>
<path d="M67.872 78.9763L71.1879 83.9842L69.8517 84.8517C69.572 85.0333 69.3099 85.1153 69.0654 85.0977C68.819 85.0814 68.585 84.9824 68.3634 84.8008C68.1418 84.6191 67.9267 84.3709 67.7182 84.056C67.5173 83.7525 67.3718 83.4686 67.2817 83.2043C67.1929 82.9419 67.1843 82.6993 67.2559 82.4765C67.3256 82.2549 67.5003 82.0534 67.78 81.8718L68.1909 81.605L66.8778 79.6218L67.872 78.9763ZM68.7863 82.5042L68.7288 82.5415C68.5411 82.6634 68.4607 82.7902 68.4876 82.9219C68.5145 83.0536 68.5952 83.2209 68.7296 83.4239C68.8552 83.6136 68.973 83.7459 69.0829 83.821C69.1922 83.8992 69.3235 83.8886 69.4768 83.7891L69.5889 83.7163L68.7863 82.5042Z" fill="#4C1C7E"/>
<path d="M65.3109 80.6287L67.6738 86.1712L65.8693 87.1375L62.4878 82.1403L63.4943 81.6013L64.0341 82.4109L64.6749 82.0677L64.2772 81.1822L65.3109 80.6287ZM65.0586 82.9492L64.575 83.2082L66.2706 85.7622L66.319 85.7363L65.0586 82.9492Z" fill="#4C1C7E"/>
<path d="M60.8131 82.8108C61.3195 82.593 61.7398 82.5605 62.0742 82.7135C62.4064 82.8673 62.6921 83.2168 62.9313 83.7619L63.1668 84.2986L62.07 84.7704L61.7688 84.0839C61.7131 83.957 61.6504 83.8652 61.5806 83.8087C61.5097 83.7551 61.4259 83.7491 61.3292 83.7907C61.2284 83.8341 61.1718 83.8931 61.1596 83.9676C61.1452 84.043 61.1672 84.1473 61.2257 84.2804C61.2996 84.449 61.378 84.5822 61.4609 84.68C61.5448 84.78 61.651 84.8629 61.7798 84.9287C61.9074 84.9974 62.0749 85.0688 62.2822 85.1429L62.9855 85.3968C63.5098 85.5842 63.8701 85.9016 64.0664 86.3489C64.2718 86.817 64.3191 87.2208 64.2083 87.5603C64.0954 87.9007 63.8309 88.1604 63.4149 88.3393C62.9064 88.5581 62.4872 88.5789 62.1573 88.4018C61.8252 88.2256 61.5391 87.8639 61.2991 87.3168L62.4273 86.8314L62.593 87.209C62.6259 87.2839 62.6735 87.3327 62.7359 87.3553C62.7962 87.3788 62.8631 87.3748 62.9366 87.3431C63.0248 87.3052 63.079 87.2522 63.0991 87.1842C63.1181 87.1192 63.1106 87.0482 63.0769 86.9712C63.0431 86.8942 62.9856 86.82 62.9043 86.7486C62.823 86.6773 62.6948 86.61 62.5198 86.5468L61.613 86.2135C61.4319 86.148 61.2581 86.0706 61.0916 85.9815C60.926 85.8945 60.7714 85.7755 60.6278 85.6246C60.4851 85.4758 60.3576 85.2734 60.2453 85.0175C60.0189 84.5016 59.938 84.0553 60.0026 83.6788C60.066 83.3053 60.3362 83.016 60.8131 82.8108Z" fill="#4C1C7E"/>
<path d="M57.7859 83.9604C58.3088 83.785 58.7304 83.7872 59.0508 83.9671C59.369 84.1478 59.6244 84.5196 59.817 85.0824L60.0066 85.6367L58.8741 86.0166L58.6315 85.3077C58.5866 85.1766 58.5318 85.0801 58.4671 85.018C58.4008 84.9588 58.3178 84.9459 58.218 84.9794C58.1139 85.0143 58.0526 85.0684 58.0341 85.1417C58.0135 85.2157 58.0267 85.3214 58.0737 85.4589C58.1333 85.6329 58.2002 85.7721 58.2746 85.8765C58.3498 85.983 58.4487 86.0743 58.5716 86.1505C58.6929 86.2295 58.8538 86.3144 59.0542 86.4053L59.7338 86.7161C60.2406 86.9461 60.573 87.292 60.731 87.7539C60.8964 88.2373 60.9097 88.6436 60.7708 88.9728C60.6297 89.3027 60.3444 89.5397 59.9148 89.6838C59.3897 89.86 58.9702 89.8462 58.6563 89.6426C58.3401 89.4397 58.0854 89.0558 57.8921 88.4908L59.0572 88.0999L59.1906 88.4898C59.2171 88.5672 59.2604 88.6197 59.3207 88.6474C59.3788 88.6758 59.4458 88.6772 59.5217 88.6517C59.6129 88.6212 59.6713 88.5728 59.697 88.5067C59.7214 88.4435 59.7199 88.3721 59.6927 88.2926C59.6655 88.2131 59.6144 88.1345 59.5394 88.0567C59.4644 87.9788 59.3423 87.9012 59.1732 87.8239L58.2975 87.4171C58.1225 87.3369 57.9558 87.2456 57.7974 87.143C57.6397 87.0427 57.4956 86.9114 57.3651 86.7492C57.2354 86.5891 57.1253 86.377 57.0349 86.1127C56.8526 85.58 56.8094 85.1286 56.9054 84.7587C56.9999 84.3917 57.2934 84.1256 57.7859 83.9604Z" fill="#4C1C7E"/>
<path d="M56.2398 84.5271L57.1009 90.4825L55.1076 90.9624L53.1213 85.2778L54.2331 85.0101L54.5472 85.929L55.255 85.7586L55.0979 84.8019L56.2398 84.5271ZM55.3996 86.7077L54.8654 86.8363L55.849 89.7334L55.9024 89.7206L55.3996 86.7077Z" fill="#4C1C7E"/>
<path d="M51.2957 85.5962L51.363 91.612L49.3234 91.8297L48.1048 85.9367L49.2424 85.8153L49.4324 86.7669L50.1567 86.6896L50.1273 85.7209L51.2957 85.5962ZM50.1747 87.6493L49.6281 87.7077L50.2208 90.7072L50.2754 90.7014L50.1747 87.6493Z" fill="#4C1C7E"/>
<path d="M46.0879 86.0131L45.9573 92L44.3186 91.9649C43.8789 91.9555 43.5617 91.8421 43.3671 91.6247C43.1702 91.4095 43.077 91.0581 43.0877 90.5705L43.0934 90.3086C43.0995 90.0274 43.156 89.8006 43.2629 89.6282C43.3675 89.4557 43.5245 89.3445 43.7341 89.2945C43.4631 89.2206 43.2845 89.0569 43.1984 88.8032C43.1099 88.5517 43.0696 88.2457 43.0775 87.8851C43.086 87.4974 43.13 87.1591 43.2096 86.8704C43.2892 86.5817 43.427 86.3589 43.6229 86.202C43.8188 86.0451 44.0942 85.9704 44.4492 85.978L46.0879 86.0131ZM44.8247 89.7194L44.5774 89.7141C44.4651 89.7117 44.3921 89.7533 44.3581 89.8388C44.3242 89.9242 44.3059 90.0271 44.3033 90.1473L44.2901 90.7494C44.2859 90.9421 44.3697 91.0404 44.5415 91.044L44.7957 91.0495L44.8247 89.7194ZM44.7629 87.0397C44.4491 87.033 44.289 87.1771 44.2826 87.4719L44.2663 88.2203C44.2625 88.3903 44.286 88.5247 44.3365 88.6233C44.3847 88.7242 44.4798 88.7762 44.6218 88.7792L44.8451 88.784L44.883 87.0491C44.8327 87.0435 44.7926 87.0404 44.7629 87.0397Z" fill="#4C1C7E"/>
<path d="M41.2949 85.7106C41.7755 85.762 42.1277 85.9446 42.3515 86.2583C42.5728 86.574 42.6537 87.0036 42.5944 87.5471L42.2856 90.3751C42.23 90.8848 42.0625 91.2581 41.7832 91.4952C41.5016 91.7319 41.1182 91.8244 40.6331 91.7725C40.148 91.7205 39.7946 91.5492 39.5728 91.2586C39.3488 90.9676 39.2647 90.5673 39.3203 90.0577L39.6291 87.2297C39.6884 86.6862 39.8614 86.2838 40.148 86.0224C40.432 85.7631 40.8144 85.6591 41.2949 85.7106ZM41.165 86.8055C40.9828 86.786 40.8726 86.951 40.8345 87.3006L40.5172 90.2063C40.4852 90.4995 40.558 90.6556 40.7357 90.6746C40.9361 90.6961 41.0527 90.5568 41.0854 90.2569L41.4023 87.3545C41.4225 87.1696 41.4142 87.0341 41.3776 86.948C41.3406 86.8642 41.2698 86.8167 41.165 86.8055Z" fill="#4C1C7E"/>
<path d="M39.3257 85.5328L38.1875 91.4141L36.9996 91.1887L37.9438 86.3099L36.7221 86.0781L36.9161 85.0756L39.3257 85.5328Z" fill="#4C1C7E"/>
<path d="M36.7431 85.0344L34.5698 90.6526L32.5925 90.1117L33.6496 84.1883L34.7525 84.49L34.5755 85.444L35.2777 85.6361L35.6104 84.7246L36.7431 85.0344ZM34.9378 86.535L34.4078 86.3901L33.844 89.3951L33.897 89.4096L34.9378 86.535Z" fill="#4C1C7E"/>
<path d="M31.1448 85.1531L30.845 85.8845L29.2021 85.2242L29.5019 84.4928L31.1448 85.1531Z" fill="#4C1C7E"/>
<path d="M28.2309 81.9953L25.3443 87.2574L23.9403 86.5023C23.6464 86.3442 23.4494 86.1544 23.3493 85.9328C23.2473 85.7101 23.2246 85.4592 23.2814 85.1799C23.3381 84.9007 23.4572 84.5956 23.6387 84.2647C23.8136 83.9458 23.9974 83.6845 24.1899 83.4809C24.3813 83.2793 24.5931 83.157 24.8252 83.114C25.0553 83.07 25.3173 83.127 25.6112 83.2851L26.043 83.5173L27.1861 81.4333L28.2309 81.9953ZM25.5247 84.4621L25.4643 84.4296C25.2671 84.3235 25.1162 84.3134 25.0118 84.3992C24.9074 84.485 24.7966 84.6345 24.6797 84.8478C24.5703 85.0471 24.5083 85.2125 24.4935 85.344C24.4757 85.4763 24.5472 85.5858 24.7083 85.6724L24.826 85.7358L25.5247 84.4621Z" fill="#4C1C7E"/>
<path d="M25.5488 80.543L21.7383 85.229L20.0242 84.1131L22.8671 78.7972L23.8232 79.4196L23.3589 80.2738L23.9676 80.6701L24.5669 79.9038L25.5488 80.543ZM23.3654 81.4222L22.906 81.1231L21.4375 83.8116L21.4835 83.8415L23.3654 81.4222Z" fill="#4C1C7E"/>
<path d="M21.4758 77.6562C21.9099 77.994 22.1384 78.3448 22.1612 78.7088C22.1823 79.0714 22.0074 79.4863 21.6366 79.9536L21.2714 80.4138L20.3312 79.6822L20.7983 79.0936C20.8846 78.9848 20.9364 78.8866 20.9535 78.799C20.9674 78.7117 20.9329 78.6358 20.85 78.5714C20.7636 78.5041 20.6843 78.4828 20.6123 78.5075C20.5384 78.5308 20.4562 78.5995 20.3656 78.7137C20.251 78.8582 20.1698 78.9898 20.1222 79.1085C20.0732 79.229 20.05 79.361 20.0527 79.5044C20.0522 79.6483 20.0683 79.8281 20.1009 80.0439L20.2094 80.7774C20.2918 81.3233 20.1809 81.788 19.8766 82.1714C19.5581 82.5727 19.2217 82.8057 18.8673 82.8704C18.5112 82.9337 18.1548 82.8266 17.7982 82.5491C17.3623 82.21 17.1447 81.8546 17.1453 81.4829C17.1442 81.1099 17.3298 80.6889 17.702 80.2198L18.6693 80.9724L18.4124 81.2961C18.3614 81.3603 18.3407 81.425 18.3502 81.4901C18.3579 81.5538 18.3933 81.6102 18.4563 81.6592C18.532 81.7181 18.6048 81.7401 18.6748 81.7253C18.7416 81.711 18.8012 81.6708 18.8535 81.6048C18.9059 81.5388 18.9445 81.4534 18.9693 81.3487C18.9942 81.244 18.9931 81.1003 18.9661 80.9178L18.8316 79.9693C18.8038 79.7804 18.79 79.5922 18.7902 79.4048C18.7889 79.2192 18.8212 79.028 18.8871 78.8311C18.9515 78.6361 19.0708 78.4289 19.2449 78.2095C19.5959 77.7672 19.9541 77.4848 20.3194 77.3622C20.6814 77.2401 21.0669 77.3381 21.4758 77.6562Z" fill="#4C1C7E"/>
<path d="M19.0143 75.5663C19.4192 75.938 19.618 76.3061 19.6109 76.6707C19.6021 77.0338 19.3936 77.4333 18.9856 77.8691L18.5837 78.2982L17.7068 77.4932L18.2208 76.9443C18.3158 76.8428 18.3754 76.7491 18.3997 76.6631C18.4208 76.5773 18.3926 76.4989 18.3154 76.4279C18.2347 76.3539 18.1575 76.3263 18.0836 76.3451C18.0081 76.3624 17.9205 76.4242 17.8208 76.5307C17.6947 76.6654 17.603 76.7901 17.5458 76.9046C17.487 77.0207 17.453 77.1504 17.4439 77.2936C17.4316 77.4369 17.4328 77.6174 17.4476 77.8352L17.4953 78.5749C17.5325 79.1257 17.3837 79.5799 17.0489 79.9375C16.6984 80.3118 16.344 80.5168 15.9855 80.5527C15.6253 80.5871 15.2789 80.4516 14.9463 80.1462C14.5398 79.773 14.3521 79.4013 14.3834 79.0309C14.4129 78.659 14.6325 78.2544 15.0421 77.8169L15.9442 78.645L15.6616 78.9469C15.6055 79.0068 15.5795 79.0696 15.5836 79.1353C15.5861 79.1994 15.6167 79.2584 15.6755 79.3124C15.7461 79.3772 15.8168 79.405 15.8878 79.3959C15.9555 79.387 16.0182 79.3517 16.0759 79.2902C16.1335 79.2286 16.179 79.1467 16.2124 79.0443C16.2457 78.9419 16.2565 78.7987 16.2446 78.6145L16.1886 77.6584C16.1765 77.4678 16.1782 77.2792 16.1937 77.0924C16.2077 76.9073 16.2557 76.7193 16.3375 76.5285C16.4179 76.3393 16.5538 76.1424 16.7454 75.9378C17.1316 75.5253 17.5118 75.2727 17.886 75.18C18.2569 75.0875 18.633 75.2162 19.0143 75.5663Z" fill="#4C1C7E"/>
<path d="M17.7742 74.4906L12.9172 78.1052L11.5328 76.6063L15.6082 72.1456L16.3804 72.9817L15.7183 73.6966L16.2099 74.2288L16.9811 73.6319L17.7742 74.4906ZM15.4394 74.8113L15.0684 74.4096L12.9776 76.6581L13.0147 76.6983L15.4394 74.8113Z" fill="#4C1C7E"/>
<path d="M14.4454 70.7159L9.16802 73.6971L7.98488 72.0377L12.5944 68.1198L13.2543 69.0454L12.5067 69.6722L12.9268 70.2614L13.7676 69.7653L14.4454 70.7159ZM12.0885 70.7434L11.7714 70.2987L9.41164 72.269L9.44335 72.3135L12.0885 70.7434Z" fill="#4C1C7E"/>
<path d="M11.5421 66.4142L6.20775 69.2358L5.43547 67.8042C5.22824 67.4201 5.17263 67.0908 5.26866 66.8162C5.36159 66.5408 5.62527 66.2882 6.05969 66.0584L6.29307 65.9349C6.54362 65.8024 6.77097 65.74 6.97512 65.7477C7.1782 65.7535 7.35309 65.8346 7.49981 65.991C7.43198 65.7208 7.48862 65.4864 7.66973 65.2878C7.84774 65.0882 8.09738 64.9034 8.41865 64.7335C8.76417 64.5507 9.08352 64.4229 9.37669 64.3502C9.66986 64.2774 9.93351 64.2871 10.1676 64.3793C10.4018 64.4715 10.6025 64.6726 10.7698 64.9827L11.5421 66.4142ZM7.66026 67.1405L7.54369 66.9244C7.4908 66.8264 7.41841 66.7837 7.32652 66.7963C7.23463 66.8089 7.13513 66.8435 7.02804 66.9001L6.49158 67.1839C6.31983 67.2747 6.27444 67.3952 6.35539 67.5452L6.4752 67.7673L7.66026 67.1405ZM9.98888 65.7738C9.841 65.4997 9.63573 65.4321 9.37306 65.571L8.70627 65.9237C8.55473 66.0039 8.44793 66.09 8.38587 66.1819C8.32071 66.273 8.32159 66.3805 8.38851 66.5046L8.49375 66.6996L10.0395 65.882C10.0198 65.8359 10.0029 65.7998 9.98888 65.7738Z" fill="#4C1C7E"/>
<path d="M9.45347 62.1313C9.64531 62.5706 9.65863 62.964 9.49343 63.3115C9.32521 63.6579 8.98774 63.9395 8.481 64.1565L5.8443 65.2854C5.3691 65.4889 4.9585 65.5288 4.61248 65.4051C4.26555 65.2793 3.99525 64.9947 3.80159 64.5512C3.60793 64.1078 3.5841 63.7189 3.7301 63.3845C3.87518 63.0481 4.18533 62.7781 4.66052 62.5747L7.29722 61.4457C7.80396 61.2288 8.24281 61.1793 8.61378 61.2972C8.98173 61.414 9.26163 61.692 9.45347 62.1313ZM8.4275 62.5595C8.35476 62.3929 8.15544 62.3794 7.82954 62.5189L5.12029 63.679C4.84695 63.796 4.74574 63.9357 4.81665 64.0981C4.89666 64.2813 5.07649 64.313 5.35614 64.1933L8.06223 63.0347C8.23465 62.9608 8.34961 62.8869 8.40712 62.8129C8.46253 62.7397 8.46932 62.6552 8.4275 62.5595Z" fill="#4C1C7E"/>
<path d="M8.6371 60.3477L2.91816 62.2952L2.52481 61.1626L7.26892 59.5471L6.86439 58.3823L7.83921 58.0504L8.6371 60.3477Z" fill="#4C1C7E"/>
<path d="M7.78884 57.8813L1.78895 58.8296L1.27236 56.8638L6.98063 54.8058L7.26878 55.9023L6.34599 56.228L6.52944 56.9261L7.4929 56.7552L7.78884 57.8813ZM5.57335 57.0845L5.4349 56.5577L2.52526 57.5781L2.5391 57.6308L5.57335 57.0845Z" fill="#4C1C7E"/>
<path d="M4.87525 53.1559L4.08654 53.2708L3.82854 51.5338L4.61724 51.419L4.87525 53.1559Z" fill="#4C1C7E"/>
<path d="M6.14131 49.0684L0.0989783 49.3202L0.0318081 47.7394C0.0177481 47.4085 0.0810102 47.1437 0.221594 46.9449C0.362082 46.7438 0.56787 46.5956 0.838959 46.5003C1.11005 46.405 1.43556 46.3494 1.81549 46.3336C2.1817 46.3183 2.50247 46.3401 2.77782 46.399C3.05088 46.458 3.26565 46.5751 3.42212 46.7502C3.5785 46.9231 3.66372 47.1749 3.67778 47.5058L3.69843 47.9919L6.09133 47.8922L6.14131 49.0684ZM2.61356 48.0371L2.61067 47.9691C2.60123 47.747 2.53251 47.6137 2.40451 47.5691C2.27651 47.5244 2.09006 47.5072 1.84516 47.5174C1.61629 47.527 1.44111 47.5592 1.31964 47.6143C1.19578 47.6671 1.1377 47.7842 1.1454 47.9655L1.15104 48.098L2.61356 48.0371Z" fill="#4C1C7E"/>
<path d="M6.02105 46.0437L0 45.2377L0.0781267 43.2079L6.14328 42.8682L6.0997 44.0004L5.12126 44.0486L5.09351 44.7694L6.0658 44.881L6.02105 46.0437ZM4.13192 44.6479L4.15286 44.1039L1.06963 44.2498L1.06753 44.3042L4.13192 44.6479Z" fill="#4C1C7E"/>
<path d="M6.39947 41.0973C6.33543 41.6403 6.15268 42.0165 5.8512 42.226C5.55 42.4332 5.10133 42.5024 4.50519 42.4334L3.91816 42.3656L4.05687 41.1895L4.80773 41.2763C4.94652 41.2924 5.05813 41.2847 5.14255 41.2534C5.22496 41.2195 5.27227 41.1508 5.2845 41.0471C5.29725 40.939 5.27417 40.861 5.21524 40.8131C5.15658 40.7629 5.05444 40.7294 4.90882 40.7125C4.72452 40.6912 4.56881 40.6915 4.44169 40.7133C4.31229 40.7349 4.18654 40.7843 4.06442 40.8615C3.94029 40.9362 3.79384 41.0438 3.62506 41.1841L3.05014 41.6589C2.62313 42.0137 2.16502 42.1628 1.67583 42.1063C1.16388 42.0471 0.787478 41.8848 0.546625 41.6194C0.306039 41.3518 0.212053 40.995 0.264667 40.5489C0.328974 40.0036 0.521305 39.6342 0.84166 39.4406C1.16228 39.2448 1.6218 39.1814 2.22021 39.2506L2.07751 40.4605L1.66454 40.4127C1.58263 40.4032 1.51613 40.4195 1.46504 40.4616C1.41422 40.5014 1.38416 40.5607 1.37486 40.6396C1.3637 40.7342 1.38277 40.8072 1.43206 40.8586C1.47934 40.9074 1.54508 40.9367 1.62926 40.9465C1.71345 40.9562 1.80712 40.9442 1.91028 40.9104C2.01343 40.8767 2.13655 40.8007 2.27965 40.6825L3.0261 40.0735C3.17428 39.9513 3.32909 39.8413 3.49054 39.7435C3.64971 39.6454 3.83125 39.5728 4.03517 39.5256C4.23681 39.4781 4.47756 39.4706 4.75743 39.5029C5.32171 39.5682 5.75203 39.723 6.04841 39.9674C6.34277 40.2092 6.45979 40.5859 6.39947 41.0973Z" fill="#4C1C7E"/>
<path d="M6.9108 37.9267C6.80301 38.4628 6.59039 38.8233 6.27292 39.0082C5.95591 39.1909 5.50309 39.2242 4.91445 39.1082L4.3348 38.9939L4.56827 37.8327L5.30968 37.9788C5.44673 38.0058 5.5586 38.0071 5.64528 37.9825C5.73017 37.9553 5.7829 37.8905 5.80347 37.7882C5.82494 37.6814 5.80825 37.6018 5.75339 37.5494C5.69898 37.4947 5.59988 37.4532 5.45609 37.4248C5.27411 37.389 5.11888 37.3769 4.9904 37.3886C4.85968 37.3998 4.73033 37.4391 4.60235 37.5063C4.47257 37.571 4.31788 37.6665 4.13829 37.793L3.52678 38.2206C3.07242 38.5404 2.60372 38.6527 2.12068 38.5575C1.61517 38.4578 1.25312 38.2662 1.03452 37.9826C0.816372 37.6967 0.751577 37.3336 0.840135 36.8931C0.948373 36.3547 1.16999 36.0018 1.50499 35.8342C1.84043 35.6644 2.3036 35.6378 2.89448 35.7542L2.6543 36.9489L2.24652 36.8685C2.16564 36.8526 2.09804 36.8635 2.04371 36.9014C1.98983 36.937 1.95507 36.9938 1.93941 37.0716C1.92063 37.1651 1.93372 37.2393 1.9787 37.2945C2.02187 37.3469 2.08503 37.3813 2.16815 37.3977C2.25128 37.4141 2.34562 37.4096 2.45118 37.3841C2.55673 37.3587 2.68561 37.2927 2.83781 37.1863L3.63116 36.6384C3.78876 36.5284 3.95197 36.431 4.12082 36.3464C4.28742 36.2613 4.47426 36.2033 4.68134 36.1724C4.88618 36.1411 5.12677 36.1526 5.40311 36.2071C5.96029 36.3169 6.3767 36.5054 6.65234 36.7725C6.92618 37.037 7.01233 37.4217 6.9108 37.9267Z" fill="#4C1C7E"/>
<path d="M7.18686 36.3172L1.53094 34.1194L2.09326 32.166L8.0666 33.261L7.75294 34.3506L6.7909 34.1676L6.59121 34.8612L7.50899 35.1981L7.18686 36.3172ZM5.68618 34.5174L5.83688 33.9938L2.80677 33.411L2.7917 33.4634L5.68618 34.5174Z" fill="#4C1C7E"/>
<path d="M8.68188 31.5294L3.3454 28.6532L4.14837 26.784L9.93812 28.6051L9.49023 29.6477L8.55859 29.3478L8.27345 30.0115L9.14187 30.4587L8.68188 31.5294ZM7.41855 29.559L7.63375 29.0581L4.70019 28.1072L4.67867 28.1573L7.41855 29.559Z" fill="#4C1C7E"/>
<path d="M10.8476 26.8209L5.61797 23.8134L6.44114 22.41C6.66204 22.0334 6.91564 21.8133 7.20194 21.7497C7.48741 21.683 7.84309 21.7722 8.26899 22.0171L8.49779 22.1487C8.74342 22.2899 8.91662 22.4486 9.01738 22.6246C9.11929 22.7986 9.14167 22.9885 9.08452 23.1943C9.28085 22.9951 9.51197 22.9195 9.77787 22.9675C10.0429 23.0124 10.333 23.1254 10.6479 23.3065C10.9867 23.5013 11.2644 23.703 11.4812 23.9116C11.6979 24.1202 11.8283 24.3473 11.8723 24.5929C11.9163 24.8386 11.8491 25.1134 11.6708 25.4175L10.8476 26.8209ZM8.18165 23.9342L8.30591 23.7224C8.36228 23.6263 8.36088 23.5428 8.30172 23.4721C8.24255 23.4013 8.16047 23.3358 8.05548 23.2754L7.52954 22.9729C7.36116 22.8761 7.23383 22.9012 7.14754 23.0483L7.01984 23.2661L8.18165 23.9342ZM10.5805 25.1761C10.7382 24.9073 10.6882 24.6989 10.4307 24.5508L9.77698 24.1749C9.62841 24.0895 9.4983 24.0448 9.38666 24.0409C9.27419 24.034 9.18229 24.0913 9.11096 24.2129L8.99879 24.4041L10.5142 25.2756C10.5435 25.2347 10.5656 25.2016 10.5805 25.1761Z" fill="#4C1C7E"/>
<path d="M13.4287 22.8098C13.1519 23.2022 12.8208 23.4201 12.4354 23.4634C12.0494 23.5036 11.6301 23.3671 11.1775 23.0541L8.82242 21.4253C8.39798 21.1318 8.14804 20.8068 8.0726 20.4503C7.99847 20.0919 8.1011 19.7146 8.3805 19.3185C8.6599 18.9224 8.98161 18.6981 9.34563 18.6455C9.71096 18.591 10.1059 18.7106 10.5303 19.0041L12.8854 20.6329C13.338 20.9459 13.611 21.2897 13.7045 21.6642C13.7974 22.0356 13.7055 22.4175 13.4287 22.8098ZM12.5219 22.1702C12.6268 22.0215 12.5337 21.8464 12.2426 21.6451L9.82276 19.9715C9.57862 19.8027 9.40539 19.7908 9.30307 19.9358C9.18764 20.0995 9.25481 20.2677 9.50459 20.4404L11.9216 22.112C12.0756 22.2185 12.1996 22.2766 12.2934 22.2861C12.3854 22.2944 12.4615 22.2558 12.5219 22.1702Z" fill="#4C1C7E"/>
<path d="M14.5324 21.185L9.84964 17.3956L10.615 16.4682L14.4996 19.6117L15.2868 18.658L16.085 19.3039L14.5324 21.185Z" fill="#4C1C7E"/>
<path d="M16.2037 19.1726L12.237 14.6155L13.6549 13.1476L18.422 16.8761L17.6311 17.6949L16.8665 17.0884L16.363 17.6097L17.0159 18.3317L16.2037 19.1726ZM15.7245 16.8874L16.1046 16.494L13.6992 14.5785L13.6612 14.6178L15.7245 16.8874Z" fill="#4C1C7E"/>
<path d="M18.7423 14.2396L18.2305 13.6344L19.5898 12.5072L20.1017 13.1124L18.7423 14.2396Z" fill="#4C1C7E"/>
<path d="M41.1595 53.8648C41.1478 53.8078 41.0339 53.6785 40.9494 53.5825C40.9045 53.5314 40.8678 53.4898 40.8593 53.4735C40.2536 52.2764 39.6292 51.1307 39.0029 49.9813C38.4582 48.982 37.9121 47.9799 37.3756 46.939C37.0474 46.3035 36.6635 45.4756 36.3517 44.7803C36.3348 44.7426 36.3185 44.7063 36.3028 44.6714C36.0019 44.001 35.9202 43.819 35.8266 43.1519C35.7872 42.8673 35.7922 42.552 35.9103 42.1833L39.9059 47.3611C40.1205 47.5055 40.3511 47.3565 40.5436 47.2321C40.5645 47.2186 40.585 47.2054 40.6049 47.1929C40.9367 46.9834 41.2666 46.7363 41.5953 46.49C41.868 46.2857 42.1399 46.082 42.4115 45.9009C42.4464 45.8779 42.5017 45.8282 42.5681 45.7686C42.7678 45.5893 43.0674 45.3203 43.209 45.4174L44.1213 47.7767C44.1223 47.7778 44.1232 47.7789 44.1241 47.78C44.2652 47.9527 44.3511 48.0577 44.6038 48.0063C44.6038 47.9817 44.603 47.9563 44.6021 47.9305C44.5992 47.8409 44.5962 47.7467 44.6267 47.6651C45.0485 46.5348 46.0707 45.1279 47.1258 44.4488C47.8249 43.9992 48.5698 43.7777 49.4461 43.5998C49.62 43.4866 49.5708 42.607 49.5281 42.4243C49.5133 42.3628 49.5429 42.4857 49.5281 42.4243C49.5074 42.3393 49.4949 42.2493 49.482 42.1572C49.446 41.899 49.4076 41.6238 49.1802 41.3926C49.1265 41.3624 48.9234 41.372 48.6349 41.3857C47.7153 41.4291 45.9278 41.5136 45.3438 40.4838C45.293 40.3941 45.2458 40.3176 45.203 40.2481C45.0315 39.9697 44.929 39.8035 44.9336 39.3519C44.9349 39.2232 45.4661 39.0995 45.884 39.0022C45.9963 38.976 46.1005 38.9518 46.184 38.9298C46.7607 38.7778 47.4092 38.5664 48.0726 38.3501C49.1305 38.0052 50.2267 37.6478 51.1313 37.4987C51.4381 37.4486 51.8598 37.4664 52.0715 37.717C52.2681 37.9488 52.6042 38.7869 52.8064 39.2912C52.8455 39.3887 52.8796 39.4737 52.9067 39.5394C53.3924 40.7183 53.888 42.0766 54.2785 43.2166C54.2988 43.276 54.3196 43.3345 54.3401 43.3923C54.5008 43.8442 54.6466 44.2542 54.4196 44.7431C53.0314 46.6528 51.3856 49.1269 50.1795 51.1789C50.157 51.2176 50.094 51.3006 50.0273 51.3884C49.9434 51.499 49.8536 51.6172 49.8317 51.664C49.1852 53.0401 49.6052 68.7028 49.6052 68.7028H55.2696V77.0306H49.6085V82.9328H41.1579V77.0306H35.5788L35.5788 68.7028H41.1579V53.8664L41.1595 53.8648Z" fill="#6C4574"/>
<path d="M16.4168 44.6848C16.4168 28.9005 29.327 16.1049 45.2526 16.1049C61.1781 16.1049 74.0884 28.9005 74.0884 44.6848C74.0884 54.3769 69.2207 62.9423 61.7761 68.1102C61.7076 68.4345 61.7476 73.1091 61.7761 75.4058C72.9742 69.6018 80.6107 58.0224 80.6107 44.6848C80.6107 25.5282 64.8572 9.99875 45.4242 9.99875C25.9912 9.99875 10.2377 25.5282 10.2377 44.6848C10.2377 58.0224 17.8743 69.6018 29.0723 75.4058V68.3449C21.4345 63.2039 16.4168 54.5251 16.4168 44.6848Z" fill="#66AC21"/>
<path fill-rule="evenodd" clip-rule="evenodd" d="M51.1602 64.0299C60.4346 61.5347 67.2553 53.1355 67.2553 43.1583C67.2553 31.2147 57.4812 21.5325 45.4242 21.5325C33.3673 21.5325 23.5932 31.2147 23.5932 43.1583C23.5932 53.1355 30.4138 61.5347 39.6882 64.0299C39.6882 64.0299 39.6882 58.0843 39.6882 57.4059C39.6882 56.7274 38.1472 52.9111 38.1472 52.9111H30.4421C28.6006 49.6225 27.982 47.641 27.4457 43.9216L33.6954 39.342L31.3839 32.0486C33.8663 29.1781 35.5797 27.9937 39.0033 26.3665L45.4242 30.8613L51.7595 26.3665C55.1956 28.1708 56.9897 29.3704 59.807 32.0486L57.2387 39.342L63.3171 43.9216C62.8034 47.757 62.2128 49.7298 60.5775 52.9111H52.9581C52.9581 52.9111 51.0746 56.897 51.0746 57.4059C51.0746 57.9147 51.1602 64.0299 51.1602 64.0299Z" fill="#C56287"/>
<path d="M36.0925 41.1229C36.2747 41.762 39.1745 45.1088 39.3458 45.1937C39.517 45.2785 41.058 44.0912 41.058 43.9477C41.058 43.8042 38.2328 39.479 37.976 39.3681C37.7191 39.2572 35.9103 40.4838 36.0925 41.1229Z" fill="#6C4574"/>
<path d="M41.3148 36.8038C40.9653 36.4147 38.4909 37.9417 38.7465 38.5787C39.002 39.2157 41.7429 43.3952 41.9141 43.4975C42.0854 43.5998 43.8832 42.1526 43.8832 41.977C43.8832 41.8014 41.6644 37.1928 41.3148 36.8038Z" fill="#6C4574"/>
<path d="M44.3113 40.6141C44.3113 40.6141 42.5109 36.5229 42.3422 36.0345C42.1735 35.5461 45.1431 34.2724 45.5098 34.7624C45.8766 35.2524 46.7298 37.9851 46.7298 37.9851C45.6675 38.1138 45.0945 38.2271 44.2471 38.7483L44.3113 40.6141Z" fill="#6C4574"/>
<path d="M46.5372 34.6519C46.6584 35.1281 47.7357 37.7898 47.7357 37.7898C48.6467 37.7142 49.2525 37.5047 50.3651 37.1199C50.4287 37.0979 50.4939 37.0753 50.5609 37.0522C50.5609 37.0522 49.5028 34.1161 49.1911 33.7447C48.8795 33.3733 46.416 34.1757 46.5372 34.6519Z" fill="#6C4574"/>
<path fill-rule="evenodd" clip-rule="evenodd" d="M40.9494 53.5825C40.9045 53.5314 40.8678 53.4898 40.8593 53.4735C40.2536 52.2764 39.6292 51.1307 39.0029 49.9813C38.4582 48.982 37.9121 47.9799 37.3756 46.939C37.0474 46.3035 36.6635 45.4756 36.3517 44.7803C36.3348 44.7426 36.3185 44.7063 36.3028 44.6714C36.0019 44.001 35.9202 43.819 35.8266 43.1519C35.7872 42.8673 35.7922 42.552 35.9103 42.1833L39.9059 47.3611C40.1205 47.5055 40.3511 47.3565 40.5436 47.2321C40.5645 47.2186 40.585 47.2054 40.6049 47.1929C40.9367 46.9834 41.2666 46.7363 41.5953 46.49C41.868 46.2857 42.1399 46.082 42.4115 45.9009C42.4464 45.8779 42.5017 45.8282 42.5681 45.7686C42.7678 45.5893 43.0674 45.3203 43.209 45.4174L44.1213 47.7767L44.1241 47.78C44.2652 47.9527 44.3511 48.0577 44.6038 48.0063C44.6038 47.9817 44.603 47.9563 44.6021 47.9305C44.5992 47.8409 44.5962 47.7467 44.6267 47.6651C45.0485 46.5348 46.0707 45.1279 47.1258 44.4488C47.8249 43.9992 48.5698 43.7777 49.4461 43.5998C49.62 43.4866 49.5708 42.607 49.5281 42.4243C49.5074 42.3393 49.4949 42.2493 49.482 42.1572C49.446 41.899 49.4076 41.6238 49.1802 41.3926C49.1265 41.3624 48.9234 41.372 48.6349 41.3857C47.7153 41.4291 45.9278 41.5136 45.3438 40.4838C45.293 40.3941 45.2458 40.3176 45.203 40.2481C45.0315 39.9697 44.929 39.8035 44.9336 39.3519C44.9349 39.2232 45.4661 39.0995 45.884 39.0022C45.9963 38.976 46.1005 38.9518 46.184 38.9298C46.7607 38.7778 47.4092 38.5664 48.0726 38.3501C49.1305 38.0052 50.2267 37.6478 51.1313 37.4987C51.4381 37.4486 51.8598 37.4664 52.0715 37.717C52.2681 37.9488 52.6042 38.7869 52.8064 39.2912C52.8455 39.3887 52.8796 39.4737 52.9067 39.5394C53.3924 40.7183 53.888 42.0766 54.2785 43.2166C54.2988 43.276 54.3196 43.3345 54.3401 43.3923C54.5008 43.8442 54.6466 44.2542 54.4196 44.7431C53.0314 46.6528 51.3856 49.1269 50.1795 51.1789C50.157 51.2176 50.094 51.3006 50.0273 51.3884C49.9434 51.499 49.8536 51.6172 49.8317 51.664C49.1852 53.0401 49.6052 68.7028 49.6052 68.7028H55.2696V77.0306H49.6085V82.9328H41.1579V77.0306H35.5788L35.5788 68.7028H41.1579V53.8664L41.1595 53.8648C41.1478 53.8078 41.0339 53.6785 40.9494 53.5825ZM16.4168 44.6848C16.4168 28.9005 29.327 16.1049 45.2526 16.1049C61.1781 16.1049 74.0884 28.9005 74.0884 44.6848C74.0884 54.3769 69.2207 62.9423 61.7761 68.1102C61.7076 68.4345 61.7476 73.1091 61.7761 75.4058C72.9742 69.6018 80.6107 58.0224 80.6107 44.6848C80.6107 25.5282 64.8572 9.99875 45.4242 9.99875C25.9912 9.99875 10.2377 25.5282 10.2377 44.6848C10.2377 58.0224 17.8743 69.6018 29.0723 75.4058V68.3449C21.4345 63.2039 16.4168 54.5251 16.4168 44.6848ZM23.5932 43.1583C23.5932 31.2147 33.3673 21.5325 45.4242 21.5325C57.4812 21.5325 67.2553 31.2147 67.2553 43.1583C67.2553 53.1355 60.4346 61.5347 51.1602 64.0299C51.1602 64.0299 51.0746 57.9147 51.0746 57.4059C51.0746 56.897 52.9581 52.9111 52.9581 52.9111H60.5775C62.2128 49.7298 62.8034 47.757 63.3171 43.9216L57.2387 39.342L59.807 32.0486C56.9897 29.3704 55.1956 28.1708 51.7595 26.3665L45.4242 30.8613L39.0033 26.3665C35.5797 27.9937 33.8663 29.1781 31.3839 32.0486L33.6954 39.342L27.4457 43.9216C27.982 47.641 28.6006 49.6225 30.4421 52.9111H38.1472C38.1472 52.9111 39.6882 56.7274 39.6882 57.4059V64.0299C30.4138 61.5347 23.5932 53.1355 23.5932 43.1583ZM39.3458 45.1937C39.1745 45.1088 36.2747 41.762 36.0925 41.1229C35.9103 40.4838 37.7191 39.2572 37.976 39.3681C38.2328 39.479 41.058 43.8042 41.058 43.9477C41.058 44.0912 39.517 45.2785 39.3458 45.1937ZM38.7465 38.5787C38.4909 37.9417 40.9653 36.4147 41.3148 36.8038C41.6644 37.1928 43.8832 41.8014 43.8832 41.977C43.8832 42.1526 42.0854 43.5998 41.9141 43.4975C41.7429 43.3952 39.002 39.2157 38.7465 38.5787ZM42.3422 36.0345C42.5109 36.5229 44.3113 40.6141 44.3113 40.6141L44.2471 38.7483C45.0945 38.2271 45.6675 38.1138 46.7298 37.9851C46.7298 37.9851 45.8766 35.2524 45.5098 34.7624C45.1431 34.2724 42.1735 35.5461 42.3422 36.0345ZM47.7357 37.7898C47.7357 37.7898 46.6584 35.1281 46.5372 34.6519C46.416 34.1757 48.8795 33.3733 49.1911 33.7447C49.5028 34.1161 50.5609 37.0522 50.5609 37.0522C50.4939 37.0753 50.4287 37.0979 50.3651 37.1199C49.2525 37.5047 48.6467 37.7142 47.7357 37.7898Z" fill="#4C1C7E"/>
</svg>
