<svg width="25" height="22" viewBox="0 0 25 22" fill="none" xmlns="http://www.w3.org/2000/svg">
<path d="M16 1L23.5 3.5V9.75H19.75V19.75C19.75 20.0815 19.6183 20.3995 19.3839 20.6339C19.1495 20.8683 18.8315 21 18.5 21H6C5.66848 21 5.35054 20.8683 5.11612 20.6339C4.8817 20.3995 4.75 20.0815 4.75 19.75V9.75H1V3.5L8.5 1C8.5 1.99456 8.89509 2.94839 9.59835 3.65165C10.3016 4.35491 11.2554 4.75 12.25 4.75C13.2446 4.75 14.1984 4.35491 14.9017 3.65165C15.6049 2.94839 16 1.99456 16 1Z" stroke="#6F6F6F" stroke-width="1.3" stroke-linecap="round" stroke-linejoin="round"/>
<path d="M10.375 9.75H13.5L11.625 16" stroke="#6F6F6F" stroke-width="1.3" stroke-linecap="round" stroke-linejoin="round"/>
</svg>
