<svg width="22" height="24" viewBox="0 0 22 24" fill="none" xmlns="http://www.w3.org/2000/svg">
<path d="M15.2255 10.3077V5.23077C15.2255 4.1087 14.7804 3.03259 13.988 2.23916C13.1957 1.44574 12.121 1 11.0005 1C9.87996 1 8.80532 1.44574 8.01298 2.23916C7.22064 3.03259 6.77551 4.1087 6.77551 5.23077V10.3077M19.5699 8.05918L20.9929 21.5976C21.0717 22.3479 20.4859 23 19.7321 23H2.26885C2.09108 23.0002 1.91525 22.9629 1.75278 22.8906C1.59032 22.8183 1.44487 22.7126 1.32586 22.5804C1.20686 22.4481 1.11697 22.2923 1.06203 22.123C1.0071 21.9537 0.988345 21.7747 1.00699 21.5976L2.43109 8.05918C2.46394 7.7473 2.61094 7.45864 2.84374 7.24885C3.07653 7.03907 3.37865 6.92302 3.69183 6.92308H18.3092C18.9581 6.92308 19.5023 7.41385 19.5699 8.05918ZM7.19801 10.3077C7.19801 10.4199 7.15349 10.5275 7.07426 10.6069C6.99503 10.6862 6.88756 10.7308 6.77551 10.7308C6.66345 10.7308 6.55599 10.6862 6.47676 10.6069C6.39752 10.5275 6.35301 10.4199 6.35301 10.3077C6.35301 10.1955 6.39752 10.0879 6.47676 10.0085C6.55599 9.92919 6.66345 9.88462 6.77551 9.88462C6.88756 9.88462 6.99503 9.92919 7.07426 10.0085C7.15349 10.0879 7.19801 10.1955 7.19801 10.3077ZM15.648 10.3077C15.648 10.4199 15.6035 10.5275 15.5242 10.6069C15.445 10.6862 15.3375 10.7308 15.2255 10.7308C15.1134 10.7308 15.006 10.6862 14.9267 10.6069C14.8475 10.5275 14.803 10.4199 14.803 10.3077C14.803 10.1955 14.8475 10.0879 14.9267 10.0085C15.006 9.92919 15.1134 9.88462 15.2255 9.88462C15.3375 9.88462 15.445 9.92919 15.5242 10.0085C15.6035 10.0879 15.648 10.1955 15.648 10.3077Z" stroke="#6F6F6F" stroke-width="1.5" stroke-linecap="round" stroke-linejoin="round"/>
</svg>
